<mxfile host="app.diagrams.net" modified="2022-06-21T11:36:18.409Z" agent="5.0 (Macintosh; Intel Mac OS X 10_15_7) AppleWebKit/537.36 (KHTML, like Gecko) Chrome/101.0.4951.64 Safari/537.36" etag="QMV4tP2IPvUXJsX_m5Og" version="17.4.5" type="github">
  <diagram id="3iJP1sfMxHygBfhyYkdt" name="Page-1">
    <mxGraphModel dx="1018" dy="659" grid="1" gridSize="10" guides="1" tooltips="1" connect="1" arrows="1" fold="1" page="1" pageScale="1" pageWidth="827" pageHeight="1169" math="0" shadow="0">
      <root>
        <mxCell id="0" />
        <mxCell id="1" parent="0" />
        <mxCell id="OIvUyBo3cGYjElYjQeIf-8" value="" style="rounded=1;whiteSpace=wrap;html=1;fontSize=19;strokeWidth=4;dashed=1;dashPattern=1 1;strokeColor=#E6E6E6;" parent="1" vertex="1">
          <mxGeometry x="620" y="495" width="410" height="295" as="geometry" />
        </mxCell>
        <mxCell id="OIvUyBo3cGYjElYjQeIf-7" value="" style="rounded=1;whiteSpace=wrap;html=1;fontSize=19;strokeWidth=4;dashed=1;dashPattern=1 1;strokeColor=#E6E6E6;" parent="1" vertex="1">
          <mxGeometry x="80" y="420" width="530" height="420" as="geometry" />
        </mxCell>
        <mxCell id="OIvUyBo3cGYjElYjQeIf-5" value="" style="rounded=1;whiteSpace=wrap;html=1;fontSize=19;strokeWidth=4;dashed=1;dashPattern=1 1;strokeColor=#E6E6E6;" parent="1" vertex="1">
          <mxGeometry x="90" y="150" width="480" height="250" as="geometry" />
        </mxCell>
        <mxCell id="fC_Yfo43gk2nKa_LuNKN-1" value="&lt;h1&gt;bug report:b1&lt;/h1&gt;&lt;p style=&quot;font-size: 15px&quot;&gt;&lt;font style=&quot;font-size: 15px&quot;&gt;summary&lt;/font&gt;&lt;/p&gt;&lt;p style=&quot;font-size: 15px&quot;&gt;&lt;font style=&quot;font-size: 15px&quot;&gt;description&lt;/font&gt;&lt;/p&gt;" style="text;html=1;strokeColor=none;fillColor=none;spacing=5;spacingTop=-20;whiteSpace=wrap;overflow=hidden;rounded=0;" parent="1" vertex="1">
          <mxGeometry x="115" y="225" width="170" height="120" as="geometry" />
        </mxCell>
        <mxCell id="fC_Yfo43gk2nKa_LuNKN-2" value="buggy files" style="swimlane;fontStyle=1;childLayout=stackLayout;horizontal=1;startSize=30;horizontalStack=0;resizeParent=1;resizeParentMax=0;resizeLast=0;collapsible=1;marginBottom=0;fontSize=24;strokeWidth=2;" parent="1" vertex="1">
          <mxGeometry x="353.75" y="170" width="190" height="220" as="geometry" />
        </mxCell>
        <mxCell id="fC_Yfo43gk2nKa_LuNKN-3" value="file1" style="text;strokeColor=none;fillColor=none;align=left;verticalAlign=middle;spacingLeft=4;spacingRight=4;overflow=hidden;points=[[0,0.5],[1,0.5]];portConstraint=eastwest;rotatable=0;fontSize=15;" parent="fC_Yfo43gk2nKa_LuNKN-2" vertex="1">
          <mxGeometry y="30" width="190" height="30" as="geometry" />
        </mxCell>
        <mxCell id="fC_Yfo43gk2nKa_LuNKN-33" value="&lt;ol&gt;&lt;li&gt;function 1&lt;/li&gt;&lt;li&gt;&lt;span&gt;function 2&lt;/span&gt;&lt;br&gt;&lt;/li&gt;&lt;li&gt;&lt;span&gt;function m1&lt;/span&gt;&lt;br&gt;&lt;/li&gt;&lt;/ol&gt;" style="text;strokeColor=none;fillColor=none;html=1;whiteSpace=wrap;verticalAlign=middle;overflow=hidden;rounded=0;fontFamily=Helvetica;fontSize=12;fontColor=default;spacing=0;" parent="fC_Yfo43gk2nKa_LuNKN-2" vertex="1">
          <mxGeometry y="60" width="190" height="70" as="geometry" />
        </mxCell>
        <mxCell id="fC_Yfo43gk2nKa_LuNKN-4" value="file 2" style="text;strokeColor=none;fillColor=none;align=left;verticalAlign=middle;spacingLeft=4;spacingRight=4;overflow=hidden;points=[[0,0.5],[1,0.5]];portConstraint=eastwest;rotatable=0;fontSize=15;" parent="fC_Yfo43gk2nKa_LuNKN-2" vertex="1">
          <mxGeometry y="130" width="190" height="30" as="geometry" />
        </mxCell>
        <mxCell id="NLRoEtg7jLxnmpzM5d12-2" value="&amp;nbsp; &amp;nbsp; &amp;nbsp; &lt;font style=&quot;font-size: 23px&quot;&gt;&amp;nbsp;...&lt;/font&gt;" style="text;html=1;strokeColor=none;fillColor=none;align=left;verticalAlign=middle;whiteSpace=wrap;rounded=0;fontColor=#000000;" vertex="1" parent="fC_Yfo43gk2nKa_LuNKN-2">
          <mxGeometry y="160" width="190" height="30" as="geometry" />
        </mxCell>
        <mxCell id="fC_Yfo43gk2nKa_LuNKN-5" value="file k" style="text;strokeColor=none;fillColor=none;align=left;verticalAlign=middle;spacingLeft=4;spacingRight=4;overflow=hidden;points=[[0,0.5],[1,0.5]];portConstraint=eastwest;rotatable=0;fontSize=15;" parent="fC_Yfo43gk2nKa_LuNKN-2" vertex="1">
          <mxGeometry y="190" width="190" height="30" as="geometry" />
        </mxCell>
        <mxCell id="fC_Yfo43gk2nKa_LuNKN-11" value="&lt;table border=&quot;1&quot; width=&quot;100%&quot; cellpadding=&quot;4&quot; style=&quot;width: 100% ; height: 100% ; border-collapse: collapse&quot;&gt;&lt;tbody&gt;&lt;tr style=&quot;background-color: #eaf2d3 ; border: 1px solid #98bf21&quot;&gt;&lt;td&gt;（sum.，func&lt;sub&gt;1&lt;/sub&gt;）&lt;/td&gt;&lt;td&gt;（sum.，func&lt;sub&gt;2&lt;/sub&gt;）&lt;br&gt;&lt;/td&gt;&lt;td&gt;（sum.，func&lt;sub&gt;m1&lt;/sub&gt;）&lt;br&gt;&lt;/td&gt;&lt;/tr&gt;&lt;tr style=&quot;border: 1px solid #98bf21&quot;&gt;&lt;td&gt;（&lt;span style=&quot;background-color: rgb(234 , 242 , 211)&quot;&gt;desc.，func&lt;/span&gt;&lt;sub&gt;1&lt;/sub&gt;）&lt;/td&gt;&lt;td&gt;（&lt;span style=&quot;background-color: rgb(234 , 242 , 211)&quot;&gt;desc.，func&lt;span style=&quot;font-size: 10px&quot;&gt;&lt;sub&gt;2&lt;/sub&gt;&lt;/span&gt;&lt;/span&gt;）&lt;br&gt;&lt;/td&gt;&lt;td&gt;（&lt;span style=&quot;background-color: rgb(234 , 242 , 211)&quot;&gt;desc.，func&lt;span style=&quot;font-size: 10px&quot;&gt;&lt;sub&gt;m1&lt;/sub&gt;&lt;/span&gt;&lt;/span&gt;）&lt;br&gt;&lt;/td&gt;&lt;/tr&gt;&lt;/tbody&gt;&lt;/table&gt;" style="text;html=1;strokeColor=#c0c0c0;fillColor=#ffffff;overflow=fill;rounded=0;flipV=0;flipH=1;" parent="1" vertex="1">
          <mxGeometry x="210" y="440" width="310" height="80" as="geometry" />
        </mxCell>
        <mxCell id="fC_Yfo43gk2nKa_LuNKN-17" value="" style="shape=curlyBracket;whiteSpace=wrap;html=1;rounded=1;fontFamily=Helvetica;fontSize=12;fontColor=default;strokeColor=#c0c0c0;fillColor=#ffffff;gradientColor=none;rotation=-90;strokeWidth=5;" parent="1" vertex="1">
          <mxGeometry x="312.5" y="207.5" width="20" height="405" as="geometry" />
        </mxCell>
        <mxCell id="fC_Yfo43gk2nKa_LuNKN-18" value="&lt;font style=&quot;font-size: 20px&quot;&gt;file1&lt;/font&gt;" style="text;html=1;strokeColor=none;fillColor=none;align=center;verticalAlign=middle;whiteSpace=wrap;rounded=0;fontFamily=Helvetica;fontSize=12;fontColor=default;" parent="1" vertex="1">
          <mxGeometry x="120" y="460" width="60" height="30" as="geometry" />
        </mxCell>
        <mxCell id="fC_Yfo43gk2nKa_LuNKN-20" value="&lt;font style=&quot;font-size: 20px&quot;&gt;file 2&lt;/font&gt;" style="text;html=1;strokeColor=none;fillColor=none;align=center;verticalAlign=middle;whiteSpace=wrap;rounded=0;fontFamily=Helvetica;fontSize=12;fontColor=default;" parent="1" vertex="1">
          <mxGeometry x="120" y="560" width="60" height="30" as="geometry" />
        </mxCell>
        <mxCell id="fC_Yfo43gk2nKa_LuNKN-22" value="" style="shape=waypoint;sketch=0;fillStyle=solid;size=6;pointerEvents=1;points=[];fillColor=none;resizable=0;rotatable=0;perimeter=centerPerimeter;snapToPoint=1;rounded=0;fontFamily=Helvetica;fontSize=12;fontColor=default;strokeColor=#c0c0c0;html=1;" parent="1" vertex="1">
          <mxGeometry x="325" y="640" width="40" height="40" as="geometry" />
        </mxCell>
        <mxCell id="fC_Yfo43gk2nKa_LuNKN-23" value="" style="shape=waypoint;sketch=0;fillStyle=solid;size=6;pointerEvents=1;points=[];fillColor=none;resizable=0;rotatable=0;perimeter=centerPerimeter;snapToPoint=1;rounded=0;fontFamily=Helvetica;fontSize=12;fontColor=default;strokeColor=#c0c0c0;html=1;" parent="1" vertex="1">
          <mxGeometry x="325" y="660" width="40" height="40" as="geometry" />
        </mxCell>
        <mxCell id="fC_Yfo43gk2nKa_LuNKN-24" value="" style="shape=waypoint;sketch=0;fillStyle=solid;size=6;pointerEvents=1;points=[];fillColor=none;resizable=0;rotatable=0;perimeter=centerPerimeter;snapToPoint=1;rounded=0;fontFamily=Helvetica;fontSize=12;fontColor=default;strokeColor=#c0c0c0;html=1;" parent="1" vertex="1">
          <mxGeometry x="325" y="620" width="40" height="40" as="geometry" />
        </mxCell>
        <mxCell id="fC_Yfo43gk2nKa_LuNKN-25" value="" style="shape=curlyBracket;whiteSpace=wrap;html=1;rounded=1;fontFamily=Helvetica;fontSize=12;fontColor=default;strokeColor=#c0c0c0;fillColor=#ffffff;gradientColor=none;rotation=-180;strokeWidth=5;" parent="1" vertex="1">
          <mxGeometry x="560" y="440" width="50" height="320" as="geometry" />
        </mxCell>
        <mxCell id="fC_Yfo43gk2nKa_LuNKN-27" value="&lt;font style=&quot;font-size: 20px&quot;&gt;file k&lt;/font&gt;" style="text;html=1;strokeColor=none;fillColor=none;align=center;verticalAlign=middle;whiteSpace=wrap;rounded=0;fontFamily=Helvetica;fontSize=12;fontColor=default;" parent="1" vertex="1">
          <mxGeometry x="120" y="720" width="60" height="30" as="geometry" />
        </mxCell>
        <mxCell id="fC_Yfo43gk2nKa_LuNKN-28" value="&lt;font style=&quot;font-size: 20px&quot;&gt;function-level dataset&lt;/font&gt;" style="shape=cylinder3;whiteSpace=wrap;html=1;boundedLbl=1;backgroundOutline=1;size=15;rounded=0;fontFamily=Helvetica;fontSize=12;fontColor=default;strokeColor=#c0c0c0;strokeWidth=4;fillColor=#ffffff;gradientColor=none;" parent="1" vertex="1">
          <mxGeometry x="640" y="515" width="110" height="120" as="geometry" />
        </mxCell>
        <mxCell id="fC_Yfo43gk2nKa_LuNKN-34" value="&lt;font style=&quot;font-size: 20px&quot;&gt;CodeSearch&lt;br&gt;Net&lt;/font&gt;" style="shape=cylinder3;whiteSpace=wrap;html=1;boundedLbl=1;backgroundOutline=1;size=15;rounded=0;fontFamily=Helvetica;fontSize=24;strokeColor=#6c8ebf;strokeWidth=4;fillColor=#dae8fc;" parent="1" vertex="1">
          <mxGeometry x="800" y="515" width="110" height="112" as="geometry" />
        </mxCell>
        <mxCell id="fC_Yfo43gk2nKa_LuNKN-35" value="" style="shape=curlyBracket;whiteSpace=wrap;html=1;rounded=1;fontFamily=Helvetica;fontSize=13;fontColor=default;strokeColor=#c0c0c0;strokeWidth=5;fillColor=#ffffff;gradientColor=none;rotation=-90;" parent="1" vertex="1">
          <mxGeometry x="770" y="585" width="20" height="120" as="geometry" />
        </mxCell>
        <mxCell id="fC_Yfo43gk2nKa_LuNKN-36" value="&lt;font style=&quot;font-size: 20px&quot;&gt;MIX dataset&lt;/font&gt;" style="shape=datastore;whiteSpace=wrap;html=1;rounded=0;fontFamily=Helvetica;fontSize=13;fontColor=default;strokeColor=#c0c0c0;strokeWidth=2;fillColor=#ffffff;gradientColor=none;" parent="1" vertex="1">
          <mxGeometry x="720" y="685" width="120" height="100" as="geometry" />
        </mxCell>
        <mxCell id="OIvUyBo3cGYjElYjQeIf-1" value="&lt;table border=&quot;1&quot; width=&quot;100%&quot; cellpadding=&quot;4&quot; style=&quot;width: 100% ; height: 100% ; border-collapse: collapse&quot;&gt;&lt;tbody&gt;&lt;tr style=&quot;background-color: #eaf2d3 ; border: 1px solid #98bf21&quot;&gt;&lt;td&gt;（sum.，func&lt;sub&gt;1&lt;/sub&gt;）&lt;/td&gt;&lt;td&gt;（sum.，func&lt;sub&gt;2&lt;/sub&gt;）&lt;br&gt;&lt;/td&gt;&lt;td&gt;（sum.，func&lt;sub&gt;m2&lt;/sub&gt;）&lt;br&gt;&lt;/td&gt;&lt;/tr&gt;&lt;tr style=&quot;border: 1px solid #98bf21&quot;&gt;&lt;td&gt;（&lt;span style=&quot;background-color: rgb(234 , 242 , 211)&quot;&gt;desc.，func&lt;/span&gt;&lt;sub&gt;1&lt;/sub&gt;）&lt;/td&gt;&lt;td&gt;（&lt;span style=&quot;background-color: rgb(234 , 242 , 211)&quot;&gt;desc.，func&lt;span style=&quot;font-size: 10px&quot;&gt;&lt;sub&gt;2&lt;/sub&gt;&lt;/span&gt;&lt;/span&gt;）&lt;br&gt;&lt;/td&gt;&lt;td&gt;（&lt;span style=&quot;background-color: rgb(234 , 242 , 211)&quot;&gt;desc.，func&lt;span style=&quot;font-size: 10px&quot;&gt;&lt;sub&gt;m2&lt;/sub&gt;&lt;/span&gt;&lt;/span&gt;）&lt;br&gt;&lt;/td&gt;&lt;/tr&gt;&lt;/tbody&gt;&lt;/table&gt;" style="text;html=1;strokeColor=#c0c0c0;fillColor=#ffffff;overflow=fill;rounded=0;flipV=0;flipH=1;" parent="1" vertex="1">
          <mxGeometry x="210" y="540" width="310" height="80" as="geometry" />
        </mxCell>
        <mxCell id="OIvUyBo3cGYjElYjQeIf-2" value="&lt;table border=&quot;1&quot; width=&quot;100%&quot; cellpadding=&quot;4&quot; style=&quot;width: 100% ; height: 100% ; border-collapse: collapse&quot;&gt;&lt;tbody&gt;&lt;tr style=&quot;background-color: #eaf2d3 ; border: 1px solid #98bf21&quot;&gt;&lt;td&gt;（sum.，func&lt;sub&gt;1&lt;/sub&gt;）&lt;/td&gt;&lt;td&gt;（sum.，func&lt;sub&gt;2&lt;/sub&gt;）&lt;br&gt;&lt;/td&gt;&lt;td&gt;（sum.，func&lt;sub&gt;mk&lt;/sub&gt;）&lt;br&gt;&lt;/td&gt;&lt;/tr&gt;&lt;tr style=&quot;border: 1px solid #98bf21&quot;&gt;&lt;td&gt;（&lt;span style=&quot;background-color: rgb(234 , 242 , 211)&quot;&gt;desc.，func&lt;/span&gt;&lt;sub&gt;1&lt;/sub&gt;）&lt;/td&gt;&lt;td&gt;（&lt;span style=&quot;background-color: rgb(234 , 242 , 211)&quot;&gt;desc.，func&lt;span style=&quot;font-size: 10px&quot;&gt;&lt;sub&gt;2&lt;/sub&gt;&lt;/span&gt;&lt;/span&gt;）&lt;br&gt;&lt;/td&gt;&lt;td&gt;（&lt;span style=&quot;background-color: rgb(234 , 242 , 211)&quot;&gt;desc.，func&lt;span style=&quot;font-size: 10px&quot;&gt;&lt;sub&gt;mk&lt;/sub&gt;&lt;/span&gt;&lt;/span&gt;）&lt;br&gt;&lt;/td&gt;&lt;/tr&gt;&lt;/tbody&gt;&lt;/table&gt;" style="text;html=1;strokeColor=#c0c0c0;fillColor=#ffffff;overflow=fill;rounded=0;flipV=0;flipH=1;" parent="1" vertex="1">
          <mxGeometry x="210" y="690" width="310" height="80" as="geometry" />
        </mxCell>
        <mxCell id="OIvUyBo3cGYjElYjQeIf-3" value="&lt;font style=&quot;font-size: 19px&quot;&gt;Step 2: construct function-level dataset&amp;nbsp;&amp;nbsp;&lt;/font&gt;" style="text;html=1;strokeColor=none;fillColor=none;align=center;verticalAlign=middle;whiteSpace=wrap;rounded=0;" parent="1" vertex="1">
          <mxGeometry x="131.25" y="800" width="467.5" height="30" as="geometry" />
        </mxCell>
        <mxCell id="OIvUyBo3cGYjElYjQeIf-4" value="&lt;font style=&quot;font-size: 19px&quot;&gt;Step 3: construct &lt;br&gt;mix-dataset&amp;nbsp;&lt;/font&gt;" style="text;html=1;strokeColor=none;fillColor=none;align=center;verticalAlign=middle;whiteSpace=wrap;rounded=0;" parent="1" vertex="1">
          <mxGeometry x="730" y="680" width="390" height="30" as="geometry" />
        </mxCell>
        <mxCell id="OIvUyBo3cGYjElYjQeIf-6" value="&lt;span style=&quot;color: rgb(0 , 0 , 0) ; font-family: &amp;#34;helvetica&amp;#34; ; font-size: 19px ; font-style: normal ; font-weight: 400 ; letter-spacing: normal ; text-align: center ; text-indent: 0px ; text-transform: none ; word-spacing: 0px ; background-color: rgb(248 , 249 , 250) ; display: inline ; float: none&quot;&gt;Step 1: split file-level dataset&amp;nbsp;&amp;nbsp;&lt;/span&gt;" style="text;html=1;strokeColor=none;fillColor=none;align=center;verticalAlign=middle;whiteSpace=wrap;rounded=0;dashed=1;dashPattern=1 1;fontSize=19;" parent="1" vertex="1">
          <mxGeometry x="90" y="177.5" width="263.75" height="30" as="geometry" />
        </mxCell>
      </root>
    </mxGraphModel>
  </diagram>
</mxfile>
